<?xml version="1.0" encoding="UTF-8" standalone="no"?>
<!-- Created with Inkscape (http://www.inkscape.org/) -->

<svg
   xmlns:dc="http://purl.org/dc/elements/1.1/"
   xmlns:cc="http://creativecommons.org/ns#"
   xmlns:rdf="http://www.w3.org/1999/02/22-rdf-syntax-ns#"
   xmlns:svg="http://www.w3.org/2000/svg"
   xmlns="http://www.w3.org/2000/svg"
   xmlns:sodipodi="http://sodipodi.sourceforge.net/DTD/sodipodi-0.dtd"
   xmlns:inkscape="http://www.inkscape.org/namespaces/inkscape"
   width="210mm"
   height="297mm"
   viewBox="0 0 210 297"
   version="1.1"
   id="svg2052"
   inkscape:version="0.92.3 (2405546, 2018-03-11)"
   sodipodi:docname="graphics.svg">
  <defs
     id="defs2046">
    <clipPath
       id="clipPath220"
       clipPathUnits="userSpaceOnUse">
      <path
         inkscape:connector-curvature="0"
         id="path218"
         d="m 263.383,5433.825 h 0.001 z" />
    </clipPath>
    <clipPath
       id="clipPath232"
       clipPathUnits="userSpaceOnUse">
      <path
         inkscape:connector-curvature="0"
         id="path230"
         d="M 0,5904 H 2412 V 0 H 0 Z" />
    </clipPath>
    <clipPath
       id="clipPath256"
       clipPathUnits="userSpaceOnUse">
      <path
         inkscape:connector-curvature="0"
         id="path254"
         d="m 278.552,5459.401 -0.004,-0.01 9.829,16.57 -9.825,-16.562 z" />
    </clipPath>
    <clipPath
       id="clipPath268"
       clipPathUnits="userSpaceOnUse">
      <path
         inkscape:connector-curvature="0"
         id="path266"
         d="m 263.396,5435.118 14.788,24.922 0.369,-0.64 -0.369,0.64 0.004,0.01 -59.759,106.003 -29.016,0.324 73.983,-131.256 z" />
    </clipPath>
    <clipPath
       id="clipPath280"
       clipPathUnits="userSpaceOnUse">
      <path
         inkscape:connector-curvature="0"
         id="path278"
         d="m 278.188,5460.047 10.206,17.211 c 1.189,2.005 1.869,4.216 2.075,6.454 v 0 c -0.159,2.239 -0.788,4.456 -1.931,6.488 v 0 l -42.577,75.545 -27.532,0.305 z m 0.365,-0.647 9.825,16.564 z" />
    </clipPath>
    <clipPath
       id="clipPath292"
       clipPathUnits="userSpaceOnUse">
      <path
         inkscape:connector-curvature="0"
         id="path290"
         d="m 288.679,5491.26 c -0.009,0.019 -0.02,0.038 -0.03,0.058 v 0 c 0.01,-0.02 0.021,-0.039 0.03,-0.058" />
    </clipPath>
    <clipPath
       id="clipPath304"
       clipPathUnits="userSpaceOnUse">
      <path
         inkscape:connector-curvature="0"
         id="path302"
         d="m 290.502,5483.06 v 0.011 c -0.112,-2.236 -0.694,-4.45 -1.77,-6.475 v 0 c 1.205,2.258 1.811,4.746 1.821,7.236 v 0 c 0.007,2.499 -0.59,5.003 -1.794,7.279 v 0 c 1.324,-2.507 1.884,-5.294 1.743,-8.051" />
    </clipPath>
    <clipPath
       id="clipPath316"
       clipPathUnits="userSpaceOnUse">
      <path
         inkscape:connector-curvature="0"
         id="path314"
         d="m 216.621,5402.98 h 0.005 l 27.527,-0.306 18.769,31.645 -16.933,18.153 z m 0.005,0 -0.767,-1.288 z" />
    </clipPath>
    <clipPath
       id="clipPath328"
       clipPathUnits="userSpaceOnUse">
      <path
         inkscape:connector-curvature="0"
         id="path326"
         d="m 187.606,5403.299 29.016,-0.319 29.367,49.491 -0.003,0.01 3.532,5.944 -3.532,-5.944 -17.848,19.138 -40.532,-68.315 z" />
    </clipPath>
    <clipPath
       id="clipPath340"
       clipPathUnits="userSpaceOnUse">
      <path
         inkscape:connector-curvature="0"
         id="path338"
         d="m 244.154,5402.674 -27.529,0.305 -0.766,-1.286 28.28,-0.313 19.244,32.444 -0.461,0.495 z" />
    </clipPath>
    <clipPath
       id="clipPath352"
       clipPathUnits="userSpaceOnUse">
      <path
         inkscape:connector-curvature="0"
         id="path350"
         d="m 216.622,5402.98 -0.764,-1.287 0.768,1.287 z" />
    </clipPath>
    <clipPath
       id="clipPath364"
       clipPathUnits="userSpaceOnUse">
      <path
         inkscape:connector-curvature="0"
         id="path362"
         d="m 186.844,5402.013 -0.75,0.01 29.764,-0.328 0.764,1.287 -29.015,0.319 -0.763,-1.286 z" />
    </clipPath>
    <clipPath
       id="clipPath376"
       clipPathUnits="userSpaceOnUse">
      <path
         inkscape:connector-curvature="0"
         id="path374"
         d="m 186.857,5403.309 0.749,-0.01 40.532,68.315 -0.457,0.491 7.24,12.212 z m -0.764,-1.288 0.764,1.288 z" />
    </clipPath>
    <clipPath
       id="clipPath388"
       clipPathUnits="userSpaceOnUse">
      <path
         inkscape:connector-curvature="0"
         id="path386"
         d="m 186.094,5402.021 0.75,-0.01 0.763,1.286 -0.75,0.01 -0.763,-1.288 z" />
    </clipPath>
    <clipPath
       id="clipPath400"
       clipPathUnits="userSpaceOnUse">
      <path
         inkscape:connector-curvature="0"
         id="path398"
         d="m 263.016,5434.475 0.367,-0.649 -2.75,4.878 z" />
    </clipPath>
    <clipPath
       id="clipPath412"
       clipPathUnits="userSpaceOnUse">
      <path
         inkscape:connector-curvature="0"
         id="path410"
         d="m 245.988,5452.472 16.934,-18.153 0.093,0.156 -2.382,4.229 -11.115,19.716 z" />
    </clipPath>
    <clipPath
       id="clipPath424"
       clipPathUnits="userSpaceOnUse">
      <path
         inkscape:connector-curvature="0"
         id="path422"
         d="m 245.986,5452.475 h 0.003 l 3.529,5.949 -3.532,-5.946 z" />
    </clipPath>
    <clipPath
       id="clipPath436"
       clipPathUnits="userSpaceOnUse">
      <path
         inkscape:connector-curvature="0"
         id="path434"
         d="m 262.922,5434.319 0.461,-0.494 v 0 l -0.368,0.648 -0.093,-0.155 z" />
    </clipPath>
    <clipPath
       id="clipPath448"
       clipPathUnits="userSpaceOnUse">
      <path
         inkscape:connector-curvature="0"
         id="path446"
         d="m 228.138,5471.614 17.847,-19.14 3.533,5.946 -14.229,25.247 z" />
    </clipPath>
    <clipPath
       id="clipPath460"
       clipPathUnits="userSpaceOnUse">
      <path
         inkscape:connector-curvature="0"
         id="path458"
         d="m 227.681,5472.105 0.457,-0.491 7.151,12.053 -0.368,0.65 z" />
    </clipPath>
    <clipPath
       id="clipPath472"
       clipPathUnits="userSpaceOnUse">
      <path
         inkscape:connector-curvature="0"
         id="path470"
         d="m 288.695,5476.524 c 0.004,0.01 0.009,0.018 0.015,0.028 v 0 c -0.006,-0.01 -0.011,-0.018 -0.015,-0.028 m -0.014,-0.024 c 0.006,0.01 0.01,0.016 0.014,0.024 v 0 c -0.004,-0.01 -0.008,-0.016 -0.014,-0.024 m -0.054,-0.098 c 0.005,0.01 0.009,0.013 0.011,0.018 v 0 c -0.002,-0.01 -0.006,-0.011 -0.011,-0.018" />
    </clipPath>
    <clipPath
       id="clipPath484"
       clipPathUnits="userSpaceOnUse">
      <path
         inkscape:connector-curvature="0"
         id="path482"
         d="m 234.924,5484.323 -0.003,-0.01 28.464,-50.493 15.163,25.568 0.004,0.01 -0.369,0.64 -14.787,-24.923 -73.983,131.256 -0.749,0.01 -0.735,1.301 46.995,-83.36 z" />
    </clipPath>
    <clipPath
       id="clipPath496"
       clipPathUnits="userSpaceOnUse">
      <path
         inkscape:connector-curvature="0"
         id="path494"
         d="m 218.429,5566.05 27.532,-0.305 42.577,-75.544 c 1.143,-2.032 1.772,-4.25 1.931,-6.489 v 0 c 0.02,0.212 0.037,0.425 0.048,0.637 v 0 c -0.067,2.33 -0.64,4.646 -1.757,6.763 v 0 c -0.004,0.01 -0.01,0.014 -0.012,0.023 v 0 c -0.014,0.025 -0.028,0.053 -0.042,0.079 v 0 l -0.026,0.046 c -0.011,0.019 -0.02,0.038 -0.032,0.058 v 0 c -0.011,0.021 -0.022,0.042 -0.033,0.062 v 0 c -0.023,0.038 -0.044,0.078 -0.066,0.114 v 0 l -42.574,75.548 -28.281,0.313 z m 72.088,-81.701 c 0.004,-0.16 0.007,-0.32 0.007,-0.48 v 0 c 0,0.162 -0.003,0.324 -0.007,0.485 v 0 c 0,0 0,0 0,-0.01 m 0.006,-0.641 c 0,0.053 10e-4,0.107 10e-4,0.161 v 0 c 0,-0.054 -10e-4,-0.108 -10e-4,-0.161 m 0,0 c 0,0 0,0 0,0 v 0 c 0,0 0,0 0,0 v 0 c 0,0 0,0 0,0 m 0,0 c 0,0 0,0 0,0 m -0.002,-0.101 c 0,0.034 0.002,0.067 0.002,0.101 v 0 c 0,-0.034 -0.002,-0.067 -0.002,-0.101 m 0.002,0.101 c 0,0 0,0 0,0 m -0.003,-0.15 c 0,0.017 0.001,0.032 0.001,0.049 v 0 c 0,-0.017 -0.001,-0.032 -0.001,-0.049 m 0,0 c 0,0 0,0 0,0 m 0,0 c 0,-0.011 0,-0.022 0,-0.033 v 0 c 0,0.011 0,0.022 0,0.033 v 0 c 0,0 0,0 0,0 m 0,-0.033 c 0,0 0,0 0,0 m -0.017,-0.452 v -0.01 c 0.007,0.153 0.013,0.307 0.017,0.461 v 0 c -0.004,-0.151 -0.01,-0.301 -0.017,-0.452" />
    </clipPath>
    <clipPath
       id="clipPath508"
       clipPathUnits="userSpaceOnUse">
      <path
         inkscape:connector-curvature="0"
         id="path506"
         d="m 278.183,5460.041 0.37,-0.641 -0.365,0.647 -0.005,-0.01 z" />
    </clipPath>
    <clipPath
       id="clipPath520"
       clipPathUnits="userSpaceOnUse">
      <path
         inkscape:connector-curvature="0"
         id="path518"
         d="m 288.394,5477.258 -10.206,-17.21 0.364,-0.648 9.825,16.564 c 0.087,0.146 0.17,0.292 0.251,0.439 v 0 c 0.003,0.01 0.008,0.013 0.011,0.018 v 0 c 0.012,0.026 0.027,0.051 0.042,0.079 v 0 c 0.009,0.018 0.018,0.034 0.028,0.053 v 0 c 0.008,0.014 0.015,0.028 0.023,0.043 v 0 c 1.077,2.025 1.658,4.238 1.771,6.474 v 0 c -0.008,0.214 -0.018,0.429 -0.033,0.642 v 0 c -0.208,-2.239 -0.887,-4.448 -2.076,-6.454" />
    </clipPath>
    <clipPath
       id="clipPath532"
       clipPathUnits="userSpaceOnUse">
      <path
         inkscape:connector-curvature="0"
         id="path530"
         d="m 290.47,5483.712 c 0.015,-0.213 0.025,-0.428 0.033,-0.641 v 0 c 0.022,0.427 0.026,0.856 0.014,1.283 v 0 c -0.011,-0.213 -0.028,-0.428 -0.047,-0.642" />
    </clipPath>
    <clipPath
       id="clipPath544"
       clipPathUnits="userSpaceOnUse">
      <path
         inkscape:connector-curvature="0"
         id="path542"
         d="M 0,5904 H 2412 V 0 H 0 Z" />
    </clipPath>
  </defs>
  <sodipodi:namedview
     id="base"
     pagecolor="#ffffff"
     bordercolor="#666666"
     borderopacity="1.0"
     inkscape:pageopacity="0.0"
     inkscape:pageshadow="2"
     inkscape:zoom="0.87786315"
     inkscape:cx="212.41646"
     inkscape:cy="663.22841"
     inkscape:document-units="mm"
     inkscape:current-layer="layer1"
     showgrid="false"
     inkscape:window-width="1680"
     inkscape:window-height="1050"
     inkscape:window-x="0"
     inkscape:window-y="0"
     inkscape:window-maximized="1" />
  <metadata
     id="metadata2049">
    <rdf:RDF>
      <cc:Work
         rdf:about="">
        <dc:format>image/svg+xml</dc:format>
        <dc:type
           rdf:resource="http://purl.org/dc/dcmitype/StillImage" />
        <dc:title></dc:title>
      </cc:Work>
    </rdf:RDF>
  </metadata>
  <g
     inkscape:label="Layer 1"
     inkscape:groupmode="layer"
     id="layer1">
    <g
       id="g1216"
       transform="matrix(0.74873789,0,0,0.74873789,-7.7891261,18.713548)"
       inkscape:export-filename="C:\temp\GDG-Radzymin\src\assets\gfx\devfest_title.png"
       inkscape:export-xdpi="95.747177"
       inkscape:export-ydpi="95.747177">
      <g
         id="g4654"
         transform="matrix(2.0260938,0,0,2.0260938,353.82276,992.8585)"
         style="display:inline;opacity:1">
        <path
           style="fill:#fad2cf;fill-rule:evenodd;stroke:none;stroke-width:0.30961409;stroke-linecap:square;stroke-miterlimit:10"
           inkscape:connector-curvature="0"
           d="m -132.48193,-480.55527 v 15.75273 h 6.46787 v -15.75273 z"
           id="path2995-6" />
        <path
           style="fill:#aecbfa;fill-rule:evenodd;stroke:none;stroke-width:0.30961409;stroke-linecap:square;stroke-miterlimit:10"
           inkscape:connector-curvature="0"
           d="m -81.518204,-480.55527 v 15.75273 h 6.46788 v -15.75273 z"
           id="path2997-8" />
        <path
           style="fill:#a8dab5;fill-rule:evenodd;stroke:none;stroke-width:0.30961409;stroke-linecap:square;stroke-miterlimit:10"
           inkscape:connector-curvature="0"
           d="m -189.93334,-480.55527 v 15.75273 h 6.46787 v -15.75273 z"
           id="path2999-0" />
        <path
           style="fill:#fbbc04;fill-rule:evenodd;stroke:none;stroke-width:0.30961409;stroke-linecap:square;stroke-miterlimit:10"
           inkscape:connector-curvature="0"
           d="m -165.8392,-480.55527 c -3.16602,0 -5.72543,2.52617 -5.72543,5.63036 v 4.49201 c 0,1.48461 0.60566,2.93106 1.68018,3.97169 1.07452,1.0611 2.52073,1.65867 4.02544,1.65867 h 0.0198 v -15.75273 z"
           id="path3001-7" />
        <path
           style="fill:#fde293;fill-rule:evenodd;stroke:none;stroke-width:0.30961409;stroke-linecap:square;stroke-miterlimit:10"
           inkscape:connector-curvature="0"
           d="m -165.85901,-480.55527 v 15.75273 h 7.24994 v -15.75273 z"
           id="path3003-3" />
        <path
           style="fill:#aecbfa;fill-rule:evenodd;stroke:none;stroke-width:0.30961409;stroke-linecap:square;stroke-miterlimit:10"
           inkscape:connector-curvature="0"
           d="m -154.70061,-480.55527 9.2235,15.75273 v -15.75273 z"
           id="path3005-6" />
        <path
           style="fill:#4285f4;fill-rule:evenodd;stroke:none;stroke-width:0.30961409;stroke-linecap:square;stroke-miterlimit:10"
           inkscape:connector-curvature="0"
           d="m -145.47711,-480.55527 v 15.75273 l 9.22351,-15.75273 z"
           id="path3007-5" />
        <path
           style="fill:#34a853;fill-rule:evenodd;stroke:none;stroke-width:0.30961409;stroke-linecap:square;stroke-miterlimit:10"
           inkscape:connector-curvature="0"
           d="m -183.32207,-480.5562 c -0.0472,0 -0.0953,0 -0.14341,9.2e-4 v 15.75274 h 0.27359 c 4.416,-0.0773 7.91409,-3.6636 7.83578,-8.02064 -0.0773,-4.29096 -3.63393,-7.73303 -7.96596,-7.73303 z"
           id="path3009-6" />
        <path
           style="fill:#000000;fill-opacity:0;fill-rule:evenodd;stroke:none;stroke-width:0.30961409;stroke-linecap:square;stroke-miterlimit:10"
           inkscape:connector-curvature="0"
           d="m -183.46547,-467.81086 c 2.73583,0 4.9443,-2.1976 4.9443,-4.87736 0,-2.69929 -2.20847,-4.87828 -4.9443,-4.87828 h -3.24431 v 3.74086"
           id="path3011-2" />
        <path
           style="fill:none;fill-rule:evenodd;stroke:#0d652d;stroke-width:0.20234621;stroke-linecap:butt;stroke-miterlimit:20.7140007"
           inkscape:connector-curvature="0"
           stroke-miterlimit="20.714"
           d="m -183.46547,-467.81086 c 2.73583,0 4.9443,-2.1976 4.9443,-4.87736 0,-2.69929 -2.20847,-4.87828 -4.9443,-4.87828 h -3.24431 v 3.74086"
           id="path3013-8" />
        <path
           style="fill:#fbbc04;fill-rule:evenodd;stroke:none;stroke-width:0.30961409;stroke-linecap:square;stroke-miterlimit:10"
           inkscape:connector-curvature="0"
           d="m -94.103007,-480.55527 c -3.302799,0.13496 -5.862219,2.87336 -5.725419,6.15068 0.133019,3.17493 2.771669,5.65456 5.961279,5.65456 0.084,0 0.167921,-0.002 0.252831,-0.006 v -11.79962 z"
           id="path3015-7" />
        <path
           style="fill:#ea4335;fill-rule:evenodd;stroke:none;stroke-width:0.30961409;stroke-linecap:square;stroke-miterlimit:10"
           inkscape:connector-curvature="0"
           d="m -126.01406,-480.55527 v 3.93353 h 5.33487 v -3.93353 z"
           id="path3017-5" />
        <path
           style="fill:#4285f4;fill-rule:evenodd;stroke:none;stroke-width:0.30961409;stroke-linecap:square;stroke-miterlimit:10"
           inkscape:connector-curvature="0"
           d="m -85.583254,-480.55527 v 3.93353 h 4.06506 v -3.93353 z"
           id="path3019-6" />
        <path
           style="fill:#4285f4;fill-rule:evenodd;stroke:none;stroke-width:0.30961409;stroke-linecap:square;stroke-miterlimit:10"
           inkscape:connector-curvature="0"
           d="m -75.050314,-480.55527 v 3.93353 h 4.06507 v -3.93353 z"
           id="path3021-0" />
        <path
           style="fill:#ea4335;fill-rule:evenodd;stroke:none;stroke-width:0.30961409;stroke-linecap:square;stroke-miterlimit:10"
           inkscape:connector-curvature="0"
           d="m -126.01406,-472.68822 v 3.95215 h 4.00657 v -3.95215 z"
           id="path3023-1" />
        <path
           style="fill:#fbbc04;fill-rule:evenodd;stroke:none;stroke-width:0.30961409;stroke-linecap:square;stroke-miterlimit:10"
           inkscape:connector-curvature="0"
           d="m -93.614308,-480.55527 v 3.93353 h 5.334854 v -3.93353 z"
           id="path3025-7" />
        <path
           style="fill:#fde293;fill-rule:evenodd;stroke:none;stroke-width:0.30961409;stroke-linecap:square;stroke-miterlimit:10"
           inkscape:connector-curvature="0"
           d="m -93.614308,-476.60219 v 7.84657 h -5.315048 v 3.95308 h 5.315048 c 3.22449,-0.13496 5.745224,-2.73839 5.745224,-5.90029 0,-3.18145 -2.520734,-5.78395 -5.745224,-5.89936 z"
           id="path3027-5" />
        <path
           style="fill:#000000;fill-opacity:0;fill-rule:evenodd;stroke:none;stroke-width:0.30961409;stroke-linecap:square;stroke-miterlimit:10"
           inkscape:connector-curvature="0"
           d="m -96.388827,-471.84026 c -1.172631,-1.11789 -1.524521,-2.81472 -0.918861,-4.29933 0.625462,-1.46507 2.071682,-2.44892 3.693372,-2.44892 h 3.0094"
           id="path3029-5" />
        <path
           style="fill:none;fill-rule:evenodd;stroke:#e37400;stroke-width:0.20234621;stroke-linecap:butt;stroke-miterlimit:20.7140007"
           inkscape:connector-curvature="0"
           stroke-miterlimit="20.714"
           d="m -96.388827,-471.84026 c -1.172631,-1.11789 -1.524521,-2.81472 -0.918861,-4.29933 0.625462,-1.46507 2.071682,-2.44892 3.693372,-2.44892 h 3.0094"
           id="path3031-8" />
        <path
           style="fill:#000000;fill-opacity:0;fill-rule:evenodd;stroke:none;stroke-width:0.30961409;stroke-linecap:square;stroke-miterlimit:10"
           inkscape:connector-curvature="0"
           d="m -83.550254,-478.54941 h 10.53293"
           id="path3033-2" />
        <path
           style="fill:none;fill-rule:evenodd;stroke:#174ea6;stroke-width:0.20234621;stroke-linecap:butt;stroke-miterlimit:20.7140007"
           inkscape:connector-curvature="0"
           stroke-miterlimit="20.714"
           d="m -83.550254,-478.54941 h 10.53293"
           id="path3035-5" />
        <path
           style="fill:#34a853;fill-rule:evenodd;stroke:none;stroke-width:0.30961409;stroke-linecap:square;stroke-miterlimit:10"
           inkscape:connector-curvature="0"
           d="m -111.1623,-480.55527 c -1.52451,0 -2.97072,0.57895 -4.04524,1.63912 -1.07452,1.06018 -1.68019,2.48708 -1.68019,3.99124 v 4.49201 c 0,1.48461 0.60567,2.93106 1.68019,3.99123 1.07452,1.06017 2.52073,1.63913 4.04524,1.63913 z"
           id="path3037-4" />
        <path
           style="fill:#a8dab5;fill-rule:evenodd;stroke:none;stroke-width:0.30961409;stroke-linecap:square;stroke-miterlimit:10"
           inkscape:connector-curvature="0"
           d="m -111.1623,-480.55527 v 15.75273 h 7.23012 v -15.75273 z"
           id="path3039-8" />
        <path
           style="fill:#000000;fill-opacity:0;fill-rule:evenodd;stroke:none;stroke-width:0.30961409;stroke-linecap:square;stroke-miterlimit:10"
           inkscape:connector-curvature="0"
           d="m -112.94058,-475.05987 h -1.03584"
           id="path3041-6" />
        <path
           style="fill:none;fill-rule:evenodd;stroke:#0d652d;stroke-width:0.20234621;stroke-linecap:butt;stroke-miterlimit:20.7140007"
           inkscape:connector-curvature="0"
           stroke-miterlimit="20.714"
           d="m -112.94058,-475.05987 h -1.03584"
           id="path3043-5" />
        <path
           style="fill:#000000;fill-opacity:0;fill-rule:evenodd;stroke:none;stroke-width:0.30961409;stroke-linecap:square;stroke-miterlimit:10"
           inkscape:connector-curvature="0"
           d="m -103.93217,-475.04032 h -7.09333"
           id="path3045-3" />
        <path
           style="fill:none;fill-rule:evenodd;stroke:#0d652d;stroke-width:0.20234621;stroke-linecap:butt;stroke-miterlimit:20.7140007"
           inkscape:connector-curvature="0"
           stroke-miterlimit="20.714"
           d="m -103.93217,-475.04032 h -7.09333"
           id="path3047-1" />
        <path
           style="fill:#000000;fill-opacity:0;fill-rule:evenodd;stroke:none;stroke-width:0.30961409;stroke-linecap:square;stroke-miterlimit:10"
           inkscape:connector-curvature="0"
           d="m -103.93217,-470.31749 h -2.11034"
           id="path3049-8" />
        <path
           style="fill:none;fill-rule:evenodd;stroke:#0d652d;stroke-width:0.20234621;stroke-linecap:butt;stroke-miterlimit:20.7140007"
           inkscape:connector-curvature="0"
           stroke-miterlimit="20.714"
           d="m -103.93217,-470.31749 h -2.11034"
           id="path3051-6" />
        <path
           style="fill:#000000;fill-opacity:0;fill-rule:evenodd;stroke:none;stroke-width:0.30961409;stroke-linecap:square;stroke-miterlimit:10"
           inkscape:connector-curvature="0"
           d="m -107.97742,-470.31749 h -1.60187"
           id="path3053-9" />
        <path
           style="fill:none;fill-rule:evenodd;stroke:#0d652d;stroke-width:0.20234621;stroke-linecap:butt;stroke-miterlimit:20.7140007"
           inkscape:connector-curvature="0"
           stroke-miterlimit="20.714"
           d="m -107.97742,-470.31749 h -1.60187"
           id="path3055-1" />
        <path
           style="fill:#000000;fill-opacity:0;fill-rule:evenodd;stroke:none;stroke-width:0.30961409;stroke-linecap:square;stroke-miterlimit:10"
           inkscape:connector-curvature="0"
           d="m -144.46107,-471.26224 c 0,0.55941 -0.44906,1.0034 -1.01604,1.0034 -0.54716,0 -1.01602,-0.44399 -1.01602,-1.0034 0,-0.55847 0.46886,-1.00246 1.01602,-1.00246 0.56698,0 1.01604,0.44399 1.01604,1.00246 z"
           id="path3057-6" />
        <path
           style="fill:none;fill-rule:evenodd;stroke:#174ea6;stroke-width:0.20234621;stroke-linecap:butt;stroke-miterlimit:20.7140007"
           inkscape:connector-curvature="0"
           stroke-miterlimit="20.714"
           d="m -144.46107,-471.26224 c 0,0.55941 -0.44906,1.0034 -1.01604,1.0034 -0.54716,0 -1.01602,-0.44399 -1.01602,-1.0034 0,-0.55847 0.46886,-1.00246 1.01602,-1.00246 0.56698,0 1.01604,0.44399 1.01604,1.00246 z"
           id="path3059-7" />
        <path
           style="fill:#000000;fill-opacity:0;fill-rule:evenodd;stroke:none;stroke-width:0.30961409;stroke-linecap:square;stroke-miterlimit:10"
           inkscape:connector-curvature="0"
           d="m -140.9045,-477.33473 c 0,0.55848 -0.44906,1.00247 -1.01603,1.00247 -0.56698,0 -1.01603,-0.44399 -1.01603,-1.00247 0,-0.53986 0.44905,-1.00339 1.01603,-1.00339 0.56697,0 1.01603,0.46353 1.01603,1.00339 z"
           id="path3061-0" />
        <path
           style="fill:none;fill-rule:evenodd;stroke:#174ea6;stroke-width:0.20234621;stroke-linecap:butt;stroke-miterlimit:20.7140007"
           inkscape:connector-curvature="0"
           stroke-miterlimit="20.714"
           d="m -140.9045,-477.33473 c 0,0.55848 -0.44906,1.00247 -1.01603,1.00247 -0.56698,0 -1.01603,-0.44399 -1.01603,-1.00247 0,-0.53986 0.44905,-1.00339 1.01603,-1.00339 0.56697,0 1.01603,0.46353 1.01603,1.00339 z"
           id="path3063-5" />
        <path
           style="fill:#000000;fill-opacity:0;fill-rule:evenodd;stroke:none;stroke-width:0.30961409;stroke-linecap:square;stroke-miterlimit:10"
           inkscape:connector-curvature="0"
           d="m -142.42901,-476.46723 -2.53961,4.33749"
           id="path3065-1" />
        <path
           style="fill:none;fill-rule:evenodd;stroke:#174ea6;stroke-width:0.20234621;stroke-linecap:butt;stroke-miterlimit:20.7140007"
           inkscape:connector-curvature="0"
           stroke-miterlimit="20.714"
           d="m -142.42901,-476.46723 -2.53961,4.33749"
           id="path3067-6" />
        <path
           style="fill:#000000;fill-opacity:0;fill-rule:evenodd;stroke:none;stroke-width:0.30961409;stroke-linecap:square;stroke-miterlimit:10"
           inkscape:connector-curvature="0"
           d="m -147.99784,-477.33473 c 0,0.55848 -0.46886,1.00247 -1.01603,1.00247 -0.56697,0 -1.01603,-0.44399 -1.01603,-1.00247 0,-0.53986 0.44906,-1.00339 1.01603,-1.00339 0.54717,0 1.01603,0.46353 1.01603,1.00339 z"
           id="path3069-5" />
        <path
           style="fill:none;fill-rule:evenodd;stroke:#174ea6;stroke-width:0.20234621;stroke-linecap:butt;stroke-miterlimit:20.7140007"
           inkscape:connector-curvature="0"
           stroke-miterlimit="20.714"
           d="m -147.99784,-477.33473 c 0,0.55848 -0.46886,1.00247 -1.01603,1.00247 -0.56697,0 -1.01603,-0.44399 -1.01603,-1.00247 0,-0.53986 0.44906,-1.00339 1.01603,-1.00339 0.54717,0 1.01603,0.46353 1.01603,1.00339 z"
           id="path3071-5" />
        <path
           style="fill:#000000;fill-opacity:0;fill-rule:evenodd;stroke:none;stroke-width:0.30961409;stroke-linecap:square;stroke-miterlimit:10"
           inkscape:connector-curvature="0"
           d="m -148.50632,-476.46723 2.54054,4.33749"
           id="path3073-8" />
        <path
           style="fill:none;fill-rule:evenodd;stroke:#174ea6;stroke-width:0.20234621;stroke-linecap:butt;stroke-miterlimit:20.7140007"
           inkscape:connector-curvature="0"
           stroke-miterlimit="20.714"
           d="m -148.50632,-476.46723 2.54054,4.33749"
           id="path3075-1" />
        <path
           style="fill:#000000;fill-opacity:0;fill-rule:evenodd;stroke:none;stroke-width:0.30961409;stroke-linecap:square;stroke-miterlimit:10"
           inkscape:connector-curvature="0"
           d="m -187.8626,-472.68822 1.15282,-1.13742 1.17263,1.13742 -1.17263,1.15605 z"
           id="path3077-6" />
        <path
           style="fill:none;fill-rule:evenodd;stroke:#0d652d;stroke-width:0.20234621;stroke-linecap:butt;stroke-miterlimit:20.7140007"
           inkscape:connector-curvature="0"
           stroke-miterlimit="20.714"
           d="m -187.8626,-472.68822 1.15282,-1.13742 1.17263,1.13742 -1.17263,1.15605 z"
           id="path3079-4" />
        <path
           style="fill:#000000;fill-opacity:0;fill-rule:evenodd;stroke:none;stroke-width:0.30961409;stroke-linecap:square;stroke-miterlimit:10"
           inkscape:connector-curvature="0"
           d="m -107.97742,-470.31749 0.95755,-0.94475 0.97735,0.94475 -0.97735,0.96431 z"
           id="path3081-5" />
        <path
           style="fill:none;fill-rule:evenodd;stroke:#0d652d;stroke-width:0.20234621;stroke-linecap:butt;stroke-miterlimit:20.7140007"
           inkscape:connector-curvature="0"
           stroke-miterlimit="20.714"
           d="m -107.97742,-470.31749 0.95755,-0.94475 0.97735,0.94475 -0.97735,0.96431 z"
           id="path3083-8" />
        <path
           style="fill:#000000;fill-opacity:0;fill-rule:evenodd;stroke:none;stroke-width:0.30961409;stroke-linecap:square;stroke-miterlimit:10"
           inkscape:connector-curvature="0"
           d="m -112.92077,-475.05987 0.95754,-0.94475 0.97641,0.94475 -0.97641,0.9643 z"
           id="path3085-0" />
        <path
           style="fill:none;fill-rule:evenodd;stroke:#0d652d;stroke-width:0.20234621;stroke-linecap:butt;stroke-miterlimit:20.7140007"
           inkscape:connector-curvature="0"
           stroke-miterlimit="20.714"
           d="m -112.92077,-475.05987 0.95754,-0.94475 0.97641,0.94475 -0.97641,0.9643 z"
           id="path3087-3" />
        <path
           style="fill:#000000;fill-opacity:0;fill-rule:evenodd;stroke:none;stroke-width:0.30961409;stroke-linecap:square;stroke-miterlimit:10"
           inkscape:connector-curvature="0"
           d="m -77.316344,-475.21438 c 0,0.52031 -0.4302,0.94475 -0.95755,0.94475 -0.54715,0 -0.97735,-0.42444 -0.97735,-0.94475 0,-0.53986 0.4302,-0.9643 0.97735,-0.9643 0.52735,0 0.95755,0.42444 0.95755,0.9643 z"
           id="path3089-5" />
        <path
           style="fill:none;fill-rule:evenodd;stroke:#174ea6;stroke-width:0.20234621;stroke-linecap:butt;stroke-miterlimit:20.7140007"
           inkscape:connector-curvature="0"
           stroke-miterlimit="20.714"
           d="m -77.316344,-475.21438 c 0,0.52031 -0.4302,0.94475 -0.95755,0.94475 -0.54715,0 -0.97735,-0.42444 -0.97735,-0.94475 0,-0.53986 0.4302,-0.9643 0.97735,-0.9643 0.52735,0 0.95755,0.42444 0.95755,0.9643 z"
           id="path3091-5" />
        <path
           style="fill:#000000;fill-opacity:0;fill-rule:evenodd;stroke:none;stroke-width:0.30961409;stroke-linecap:square;stroke-miterlimit:10"
           inkscape:connector-curvature="0"
           d="m -77.316344,-471.57033 c 0,0.52031 -0.4302,0.9643 -0.95755,0.9643 -0.54715,0 -0.97735,-0.44399 -0.97735,-0.9643 0,-0.52031 0.4302,-0.94476 0.97735,-0.94476 0.52735,0 0.95755,0.42445 0.95755,0.94476 z"
           id="path3093-7" />
        <path
           style="fill:none;fill-rule:evenodd;stroke:#174ea6;stroke-width:0.20234621;stroke-linecap:butt;stroke-miterlimit:20.7140007"
           inkscape:connector-curvature="0"
           stroke-miterlimit="20.714"
           d="m -77.316344,-471.57033 c 0,0.52031 -0.4302,0.9643 -0.95755,0.9643 -0.54715,0 -0.97735,-0.44399 -0.97735,-0.9643 0,-0.52031 0.4302,-0.94476 0.97735,-0.94476 0.52735,0 0.95755,0.42445 0.95755,0.94476 z"
           id="path3095-7" />
        <path
           style="fill:#000000;fill-opacity:0;fill-rule:evenodd;stroke:none;stroke-width:0.30961409;stroke-linecap:square;stroke-miterlimit:10"
           inkscape:connector-curvature="0"
           d="m -77.316344,-467.92628 c 0,0.53986 -0.4302,0.9643 -0.95755,0.9643 -0.54715,0 -0.97735,-0.42444 -0.97735,-0.9643 0,-0.52031 0.4302,-0.94475 0.97735,-0.94475 0.52735,0 0.95755,0.42444 0.95755,0.94475 z"
           id="path3097-7" />
        <path
           style="fill:none;fill-rule:evenodd;stroke:#174ea6;stroke-width:0.20234621;stroke-linecap:butt;stroke-miterlimit:20.7140007"
           inkscape:connector-curvature="0"
           stroke-miterlimit="20.714"
           d="m -77.316344,-467.92628 c 0,0.53986 -0.4302,0.9643 -0.95755,0.9643 -0.54715,0 -0.97735,-0.42444 -0.97735,-0.9643 0,-0.52031 0.4302,-0.94475 0.97735,-0.94475 0.52735,0 0.95755,0.42444 0.95755,0.94475 z"
           id="path3099-2" />
        <path
           style="fill:#000000;fill-opacity:0;fill-rule:evenodd;stroke:none;stroke-width:0.30961409;stroke-linecap:square;stroke-miterlimit:10"
           inkscape:connector-curvature="0"
           d="m -95.490728,-466.76931 h 1.876412 c 1.42639,0.0382 2.774489,-0.69437 3.517889,-1.8895 0.742443,-1.19514 0.781133,-2.6993 0.0972,-3.93353 -0.68395,-1.2333 -1.993381,-2.02448 -3.39997,-2.06264 h -0.21509"
           id="path3101-1" />
        <path
           style="fill:none;fill-rule:evenodd;stroke:#e37400;stroke-width:0.20234621;stroke-linecap:butt;stroke-miterlimit:20.7140007"
           inkscape:connector-curvature="0"
           stroke-miterlimit="20.714"
           d="m -95.490728,-466.76931 h 1.876412 c 1.42639,0.0382 2.774489,-0.69437 3.517889,-1.8895 0.742443,-1.19514 0.781133,-2.6993 0.0972,-3.93353 -0.68395,-1.2333 -1.993381,-2.02448 -3.39997,-2.06264 h -0.21509"
           id="path3103-1" />
        <path
           style="fill:#000000;fill-opacity:0;fill-rule:evenodd;stroke:none;stroke-width:0.30961409;stroke-linecap:square;stroke-miterlimit:10"
           inkscape:connector-curvature="0"
           d="m -125.13482,-470.72238 h -4.10374 v 4.04895"
           id="path3105-3" />
        <path
           style="fill:none;fill-rule:evenodd;stroke:#a50e0e;stroke-width:0.20234621;stroke-linecap:butt;stroke-miterlimit:20.7140007"
           inkscape:connector-curvature="0"
           stroke-miterlimit="20.714"
           d="m -125.13482,-470.72238 h -4.10374 v 4.04895"
           id="path3107-9" />
        <path
           style="fill:#000000;fill-opacity:0;fill-rule:evenodd;stroke:none;stroke-width:0.30961409;stroke-linecap:square;stroke-miterlimit:10"
           inkscape:connector-curvature="0"
           d="m -123.35654,-478.58851 h -5.88203 v 5.80349"
           id="path3109-4" />
        <path
           style="fill:none;fill-rule:evenodd;stroke:#a50e0e;stroke-width:0.20234621;stroke-linecap:butt;stroke-miterlimit:20.7140007"
           inkscape:connector-curvature="0"
           stroke-miterlimit="20.714"
           d="m -123.35654,-478.58851 h -5.88203 v 5.80349"
           id="path3111-7" />
        <path
           style="fill:#000000;fill-opacity:0;fill-rule:evenodd;stroke:none;stroke-width:0.30961409;stroke-linecap:square;stroke-miterlimit:10"
           inkscape:connector-curvature="0"
           d="m -158.60907,-475.04032 h -7.26881"
           id="path3113-3" />
        <path
           style="fill:none;fill-rule:evenodd;stroke:#e37400;stroke-width:0.20234621;stroke-linecap:butt;stroke-miterlimit:20.7140007"
           inkscape:connector-curvature="0"
           stroke-miterlimit="20.714"
           d="m -158.60907,-475.04032 h -7.26881"
           id="path3115-4" />
        <path
           style="fill:#000000;fill-opacity:0;fill-rule:evenodd;stroke:none;stroke-width:0.30961409;stroke-linecap:square;stroke-miterlimit:10"
           inkscape:connector-curvature="0"
           d="m -158.60907,-472.68822 h -7.26881"
           id="path3117-0" />
        <path
           style="fill:none;fill-rule:evenodd;stroke:#e37400;stroke-width:0.20234621;stroke-linecap:butt;stroke-miterlimit:20.7140007"
           inkscape:connector-curvature="0"
           stroke-miterlimit="20.714"
           d="m -158.60907,-472.68822 h -7.26881"
           id="path3119-6" />
        <path
           style="fill:#000000;fill-opacity:0;fill-rule:evenodd;stroke:none;stroke-width:0.30961409;stroke-linecap:square;stroke-miterlimit:10"
           inkscape:connector-curvature="0"
           d="m -158.60907,-470.31749 h -7.26881"
           id="path3121-0" />
        <path
           style="fill:none;fill-rule:evenodd;stroke:#e37400;stroke-width:0.20234621;stroke-linecap:butt;stroke-miterlimit:20.7140007"
           inkscape:connector-curvature="0"
           stroke-miterlimit="20.714"
           d="m -158.60907,-470.31749 h -7.26881"
           id="path3123-5" />
      </g>
      <path
         id="path3125-6-3"
         d="m 170.25142,61.475685 c -0.24537,0 -0.45519,0.06852 -0.59565,0.242078 -0.17435,0.136859 -0.27921,0.34561 -0.27921,0.587687 0,0.207029 0.10493,0.414055 0.27921,0.587704 0.14044,0.172016 0.35028,0.242077 0.59565,0.242077 0.24534,0 0.42134,-0.07014 0.59732,-0.242077 0.17434,-0.173631 0.24537,-0.380675 0.24537,-0.587704 0,-0.242077 -0.071,-0.450775 -0.24537,-0.587687 -0.17597,-0.17363 -0.38581,-0.242078 -0.59732,-0.242078 z m -45.77607,1.24382 c 0.3503,0 0.70054,0.07014 0.98145,0.242078 0.28091,0.17363 0.49073,0.415724 0.66503,0.692867 0.14044,0.275476 0.24535,0.552619 0.24535,0.863163 0,0.347261 -0.10493,0.657799 -0.2792,0.934964 -0.17597,0.275457 -0.42135,0.517551 -0.73608,0.656132 -0.31645,0.17363 -0.63117,0.242094 -0.98146,0.242094 h -2.13887 V 62.719486 Z M 206.7054,62.9282 c 0.38581,0 0.7361,0.06853 1.05081,0.275479 0.31648,0.173628 0.56179,0.415721 0.77165,0.726247 0.17596,0.312211 0.2809,0.65782 0.2809,1.038479 0,0.345609 -0.10494,0.691182 -0.2809,1.001723 -0.20986,0.312211 -0.45517,0.554305 -0.77165,0.726265 -0.31471,0.208699 -0.665,0.277146 -1.05081,0.277146 -0.35027,0 -0.70057,-0.06852 -1.01698,-0.277146 -0.31473,-0.172013 -0.59562,-0.414054 -0.76991,-0.726265 -0.17597,-0.310541 -0.2809,-0.656114 -0.2809,-1.001723 0,-0.380659 0.10493,-0.726268 0.2809,-1.038479 0.17435,-0.310526 0.45518,-0.552619 0.76991,-0.726247 0.31641,-0.207031 0.66671,-0.275479 1.01698,-0.275479 z m -13.03971,0 c 0.52627,0 1.01699,0.172016 1.4028,0.517554 0.3858,0.312211 0.70056,0.761315 0.91036,1.349021 0.21152,0.587684 0.31643,1.245486 0.31643,1.971754 0,0.726247 -0.10494,1.348984 -0.31643,1.936668 -0.2098,0.587687 -0.52456,1.03681 -0.91036,1.382382 -0.38581,0.347295 -0.87653,0.519239 -1.4028,0.519239 -0.52456,0 -0.98146,-0.172016 -1.36558,-0.519239 -0.42132,-0.345572 -0.70221,-0.794695 -0.91207,-1.382382 -0.24533,-0.587684 -0.35027,-1.210421 -0.35027,-1.936668 0,-0.726268 0.10493,-1.38407 0.35027,-1.971754 0.20986,-0.587706 0.49075,-1.03681 0.91207,-1.349021 0.38412,-0.34559 0.84102,-0.517554 1.36558,-0.517554 z m -82.19452,3.250623 2.90882,3.734814 c -0.4552,0.484171 -1.01531,0.726249 -1.682,0.726249 -0.49072,0 -0.91207,-0.103497 -1.29619,-0.312211 -0.38581,-0.207028 -0.70225,-0.484174 -0.91206,-0.86316 -0.24538,-0.380659 -0.35029,-0.796386 -0.35029,-1.245489 0,-0.415706 0.14044,-0.796383 0.38583,-1.175372 0.24535,-0.380659 0.56009,-0.657802 0.94589,-0.864831 z m 27.40946,-0.899877 c 0.42135,0 0.80715,0.103498 1.15744,0.345591 0.3858,0.208696 0.66499,0.519221 0.87653,0.934945 0.20982,0.378989 0.31474,0.863161 0.31474,1.417466 0,0.519223 -0.10494,1.003392 -0.31474,1.382384 -0.21154,0.415724 -0.49073,0.726247 -0.87653,0.968343 -0.35029,0.208696 -0.73609,0.312211 -1.15744,0.312211 -0.41965,0 -0.80546,-0.103497 -1.15574,-0.312211 -0.38581,-0.242096 -0.66672,-0.552619 -0.87653,-0.968343 -0.24535,-0.414038 -0.35028,-0.863161 -0.35028,-1.382384 0,-0.554305 0.10493,-1.003409 0.35028,-1.417466 0.20981,-0.415724 0.49072,-0.726249 0.87653,-0.934945 0.35028,-0.242078 0.73609,-0.345591 1.15574,-0.345591 z m -65.614812,2.662936 c 0.350255,0 0.700545,0.03498 1.050816,0.138473 0.316429,0.06852 0.595633,0.207028 0.807165,0.345591 0,0.415726 -0.106545,0.796382 -0.316429,1.141992 -0.174344,0.310544 -0.455202,0.587684 -0.805458,0.794697 -0.350289,0.207028 -0.736094,0.312227 -1.121918,0.312227 -0.455186,0 -0.840991,-0.138653 -1.157435,-0.347295 -0.279189,-0.242075 -0.419653,-0.552619 -0.419653,-0.968325 0,-0.414038 0.140449,-0.759648 0.490738,-1.036809 0.314738,-0.242078 0.805458,-0.380659 1.472174,-0.380659 z m 18.261684,0 c 0.385811,0 0.700551,0.03498 1.050812,0.138473 0.316428,0.06852 0.595638,0.207028 0.807169,0.345591 0,0.415726 -0.10655,0.796382 -0.280889,1.141992 -0.209852,0.310544 -0.490742,0.587684 -0.84101,0.794697 -0.350271,0.207028 -0.736082,0.312227 -1.121902,0.312227 -0.455179,0 -0.841,-0.138653 -1.121889,-0.347295 -0.314751,-0.242075 -0.4552,-0.552619 -0.4552,-0.968325 0,-0.414038 0.140449,-0.759648 0.490739,-1.036809 0.31474,-0.242078 0.805449,-0.380659 1.47217,-0.380659 z m 39.887338,0 c 0.35031,0 0.70226,0.03498 1.017,0.138473 0.35027,0.06852 0.63119,0.207028 0.84101,0.345591 0,0.415726 -0.10493,0.796382 -0.31474,1.141992 -0.21153,0.310544 -0.49074,0.587684 -0.80717,0.794697 -0.35026,0.207028 -0.7361,0.312227 -1.1219,0.312227 -0.45518,0 -0.84099,-0.138653 -1.15572,-0.347295 -0.2809,-0.242075 -0.45519,-0.552619 -0.45519,-0.968325 0,-0.414038 0.17435,-0.759648 0.52457,-1.036809 0.31642,-0.242078 0.80715,-0.380659 1.47214,-0.380659 z m -73.957098,-6.362681 2.698969,9.925516 h 1.226833 l 2.242082,-7.194114 0.211529,-0.761336 h 0.06942 l 0.209843,0.761336 2.138873,7.194114 h 1.226815 l 2.734503,-9.925516 h -1.333412 l -1.962875,7.953759 h -0.06942 l -0.209825,-0.6578 -2.138873,-7.295959 h -1.226817 l -2.243783,7.295959 -0.209828,0.6578 h -0.06941 l -0.175962,-0.6578 -1.822431,-7.295959 z m 23.448123,2.662936 c -0.455191,0 -0.87653,0.103494 -1.260631,0.380659 -0.421359,0.242078 -0.666729,0.552616 -0.80718,0.933294 h -0.0694 v -1.106924 h -1.121918 v 7.055551 h 1.191278 v -3.943491 c 0,-0.380661 0.071,-0.759666 0.24538,-1.071858 0.175961,-0.34561 0.421341,-0.587688 0.70054,-0.794713 0.28089,-0.173633 0.597339,-0.277146 0.947589,-0.277146 0.385811,0 0.700572,0.06852 1.015313,0.207028 v -1.243819 c -0.245362,-0.105111 -0.524571,-0.138652 -0.84101,-0.138473 z m 14.056699,0.207029 2.31317,7.055551 h 1.191268 l 1.822448,-5.638086 1.85796,5.638086 h 1.22683 l 2.31317,-7.055551 h -1.22682 l -1.682,5.532919 h -0.0355 l -1.78689,-5.532919 h -1.226824 l -1.822442,5.567968 -1.717548,-5.567968 z m 26.077716,-2.869965 v 9.925516 h 1.19129 v -4.047006 h 1.57708 l 2.73451,4.047006 h 1.40279 v -0.07014 l -2.83943,-4.045337 0.034,-0.03497 c 0.45688,-0.103497 0.87653,-0.277143 1.22679,-0.552638 0.38583,-0.277143 0.66672,-0.589354 0.87653,-1.003389 0.21154,-0.380659 0.31645,-0.829766 0.31645,-1.280555 0,-0.552638 -0.14045,-1.071859 -0.42135,-1.520965 -0.28089,-0.449122 -0.66502,-0.794713 -1.15574,-1.036791 -0.45688,-0.242094 -0.98144,-0.380656 -1.54323,-0.380656 z m 22.78312,2.869965 v 1.03679 h 4.10176 l -4.20668,4.9803 v 1.038461 h 5.78379 v -1.071843 h -4.34715 l 4.24221,-4.980297 v -1.003411 z m 17.17534,-0.242097 c -0.49076,0 -0.91208,0.138652 -1.33175,0.380677 -0.38581,0.207029 -0.70222,0.519221 -0.91205,0.89821 h -0.0695 v -1.03679 h -1.12192 v 7.055551 h 1.19128 v -3.976892 c 0,-0.380656 0.071,-0.761296 0.24536,-1.106905 0.17596,-0.345609 0.38581,-0.622753 0.6667,-0.829781 0.31476,-0.20868 0.63118,-0.312193 0.98147,-0.312193 0.52457,0 0.91037,0.138473 1.19127,0.449088 0.28091,0.277159 0.42134,0.761334 0.42134,1.419135 v 4.357548 h 1.19125 v -4.011941 c 0,-0.380674 0.0695,-0.761315 0.24539,-1.106924 0.14045,-0.345591 0.3858,-0.587685 0.66501,-0.794713 0.28089,-0.20868 0.59732,-0.312193 0.98145,-0.312193 0.52624,0 0.91205,0.138473 1.19295,0.449088 0.27923,0.277159 0.41966,0.761334 0.41966,1.419135 v 4.357548 h 1.15745 v -4.531178 c 0,-0.86483 -0.20985,-1.520962 -0.63118,-2.005134 -0.42136,-0.519239 -1.01697,-0.761336 -1.85797,-0.761336 -0.52629,0 -1.01698,0.138652 -1.43665,0.380677 -0.42135,0.242094 -0.73611,0.587666 -1.01699,1.003393 -0.14044,-0.415727 -0.41964,-0.761299 -0.80546,-1.003393 -0.42135,-0.242078 -0.87653,-0.380677 -1.36724,-0.380677 z m 8.657,0.242097 v 7.055551 h 1.193 v -7.055551 z m 6.27451,-0.242097 c -0.49072,0 -0.9459,0.138652 -1.36726,0.380677 -0.45519,0.242094 -0.73609,0.519221 -0.94591,0.89821 h -0.071 v -1.03679 h -1.1202 v 7.055551 h 1.19129 v -3.976892 c 0,-0.380656 0.0695,-0.761296 0.24538,-1.106905 0.17434,-0.345609 0.41964,-0.622753 0.70053,-0.829781 0.31646,-0.20868 0.66673,-0.312193 1.05254,-0.312193 0.52454,0 0.98142,0.138473 1.29618,0.449088 0.31473,0.277159 0.49071,0.761334 0.49071,1.419135 v 4.357548 h 1.19128 v -4.531178 c 0,-0.86483 -0.24538,-1.520962 -0.70056,-2.005134 -0.45519,-0.519239 -1.1219,-0.761336 -1.96289,-0.761336 z m 9.74509,-2.38579 c -0.56178,0 -1.05251,0.103494 -1.47214,0.310541 -0.42136,0.242094 -0.73608,0.519221 -0.98145,0.829763 -0.24539,0.312211 -0.42138,0.622752 -0.49073,0.934963 l 1.08634,0.414057 c 0.0694,-0.345609 0.2792,-0.656153 0.59565,-0.933296 0.28091,-0.312211 0.70055,-0.449107 1.19128,-0.449107 0.38582,0 0.73608,0.06853 1.01699,0.242078 0.24534,0.136859 0.45518,0.345609 0.63118,0.587687 0.14045,0.242094 0.20981,0.484172 0.20981,0.759648 0,0.415724 -0.10493,0.761333 -0.24538,1.038477 -0.17596,0.242093 -0.42131,0.587668 -0.77162,1.003392 l -0.20979,0.207047 c -0.31477,0.310523 -0.80548,0.829744 -1.54156,1.556012 l -1.9629,2.005134 v 1.177042 h 6.02743 v -1.141974 h -4.52142 l 2.87496,-2.834918 c 1.05081,-1.038457 1.54157,-2.041869 1.54157,-3.010212 0,-0.484171 -0.10494,-0.933278 -0.38581,-1.347335 -0.24538,-0.415705 -0.59567,-0.726247 -1.05086,-1.003411 -0.45518,-0.242075 -0.98141,-0.345588 -1.54155,-0.345588 z m 15.45612,0.207028 -2.73283,1.936687 0.63118,0.89988 1.68198,-1.177023 v 7.816866 h 1.19128 v -9.47641 z M 73.125372,64.207069 c -0.595651,0 -1.121921,0.138652 -1.612622,0.380677 -0.490736,0.207029 -0.876541,0.552638 -1.157433,0.968344 l 0.876524,0.691181 c 0.211514,-0.310523 0.490718,-0.552616 0.807162,-0.726249 0.350271,-0.172014 0.700545,-0.242076 1.121884,-0.242076 0.560117,0 1.050835,0.138473 1.401109,0.449088 0.385805,0.347277 0.561803,0.761334 0.561803,1.28057 v 0.414039 c -0.175961,-0.103494 -0.456891,-0.207029 -0.842696,-0.310541 -0.350273,-0.103498 -0.769926,-0.138473 -1.191283,-0.138473 -0.876525,0 -1.57707,0.207026 -2.172719,0.622753 -0.561784,0.415705 -0.840991,1.003392 -0.840991,1.76304 0,0.450789 0.104931,0.864846 0.31474,1.210419 0.245359,0.347294 0.5618,0.622771 0.981438,0.831469 0.385804,0.20701 0.87654,0.310541 1.402791,0.310541 0.490739,0 0.981456,-0.138655 1.367264,-0.345609 0.419653,-0.242094 0.736079,-0.554305 0.945904,-0.899896 h 0.03551 v 1.038461 h 1.155732 v -4.496113 c 0,-0.864846 -0.280892,-1.556027 -0.840991,-2.040202 -0.560118,-0.519237 -1.331727,-0.761314 -2.313168,-0.761314 z m 11.636893,0 c -0.490701,0 -0.945901,0.06852 -1.331722,0.242097 -0.421338,0.17363 -0.736068,0.415708 -0.981437,0.726246 -0.2809,0.310544 -0.38581,0.657821 -0.38581,1.071859 0,0.519258 0.17435,0.933294 0.560099,1.280554 0.35029,0.345591 0.807148,0.55262 1.402789,0.72625 l 0.84101,0.207044 c 0.560099,0.138475 0.945909,0.277128 1.191268,0.449107 0.280892,0.207028 0.38582,0.415726 0.38582,0.726249 0,0.34561 -0.14044,0.587685 -0.455199,0.761333 -0.350272,0.172017 -0.700551,0.277144 -1.157417,0.277144 -0.419651,0 -0.805482,-0.105289 -1.155751,-0.347277 -0.350271,-0.242096 -0.631179,-0.552619 -0.807161,-0.968343 l -1.05082,0.450789 c 0.209831,0.552622 0.560099,1.001726 1.08635,1.382385 0.526259,0.34559 1.157441,0.519237 1.927382,0.519237 0.526248,0 0.981437,-0.103498 1.438327,-0.277144 0.41963,-0.172016 0.769919,-0.414057 1.015281,-0.726249 0.24534,-0.345607 0.38581,-0.726265 0.38581,-1.140322 0,-0.51924 -0.209831,-0.934964 -0.560102,-1.280536 -0.35029,-0.34561 -0.876541,-0.622753 -1.577088,-0.794716 l -1.01699,-0.242094 c -0.42133,-0.103497 -0.736068,-0.242078 -0.945899,-0.415705 -0.21151,-0.138655 -0.316431,-0.345609 -0.316431,-0.622774 0,-0.275455 0.175969,-0.484169 0.455189,-0.691181 0.280893,-0.172014 0.631161,-0.242076 1.016993,-0.242076 0.840986,0 1.402786,0.312193 1.717526,0.933257 l 1.016971,-0.484169 c -0.209819,-0.484155 -0.526269,-0.86316 -1.016971,-1.105238 -0.490738,-0.277128 -1.050829,-0.415727 -1.682017,-0.415727 z m 6.660309,0 c -0.631172,0 -1.157441,0.138652 -1.648151,0.380677 -0.49072,0.207029 -0.87653,0.552638 -1.157419,0.968344 l 0.91204,0.691181 c 0.175958,-0.310523 0.45521,-0.552616 0.771638,-0.726249 0.35028,-0.172014 0.70053,-0.242076 1.121892,-0.242076 0.560099,0 1.050819,0.138473 1.401109,0.449088 0.385799,0.347277 0.5618,0.761334 0.5618,1.28057 v 0.414039 c -0.175961,-0.103494 -0.45689,-0.207029 -0.8427,-0.310541 -0.35029,-0.103498 -0.76994,-0.138473 -1.191281,-0.138473 -0.876539,0 -1.577078,0.207026 -2.172709,0.622753 -0.561789,0.415705 -0.840991,1.003392 -0.840991,1.76304 0,0.450789 0.104931,0.864846 0.35025,1.210419 0.209841,0.347294 0.52627,0.622771 0.94592,0.831469 0.38581,0.20701 0.876551,0.310541 1.402792,0.310541 0.490738,0 0.981448,-0.138655 1.367269,-0.345609 0.41965,-0.242094 0.736081,-0.554305 0.945901,-0.899896 h 0.0355 v 1.038461 h 1.155729 v -4.496113 c 0,-0.864846 -0.280908,-1.556027 -0.840999,-2.040202 -0.56011,-0.519237 -1.33173,-0.761314 -2.27765,-0.761314 z m 21.030046,-2.836563 c -0.42134,0 -0.80546,0.105108 -1.19129,0.312189 -0.35025,0.172017 -0.63115,0.449125 -0.87653,0.794716 -0.20981,0.345609 -0.31642,0.726268 -0.31642,1.141989 0,0.277146 0.071,0.552604 0.17596,0.794698 0.14045,0.277145 0.31475,0.554307 0.56012,0.864848 v 0.03515 c -0.52458,0.310523 -0.94592,0.761297 -1.26065,1.278867 -0.31643,0.519221 -0.49073,1.071858 -0.49073,1.661212 0,0.621068 0.17434,1.210422 0.49073,1.763038 0.31473,0.51924 0.76992,0.933297 1.29617,1.245508 0.5618,0.310541 1.19127,0.449122 1.85799,0.449122 0.87651,0 1.68199,-0.310541 2.31317,-0.933296 l 0.73609,0.933296 0.87651,-0.657836 -0.9459,-1.243804 1.19128,-1.903306 -0.94592,-0.55262 -0.91205,1.591099 -3.39954,-4.357548 c -0.20983,-0.312211 -0.35029,-0.622752 -0.35029,-0.968346 0,-0.345588 0.10494,-0.622752 0.35029,-0.829762 0.20983,-0.208714 0.49072,-0.312227 0.84099,-0.312227 0.31473,0 0.5601,0.103495 0.77163,0.312227 0.17435,0.20701 0.31474,0.484174 0.45519,0.794716 l 1.01698,-0.552638 c -0.17596,-0.484172 -0.42134,-0.86483 -0.80716,-1.177041 -0.3858,-0.345607 -0.87654,-0.484172 -1.43664,-0.484172 z m 18.82179,2.836563 c -0.59564,0 -1.1202,0.138652 -1.61094,0.380677 -0.4907,0.207029 -0.87652,0.552638 -1.15742,0.968344 l 0.87653,0.691181 c 0.20982,-0.310523 0.45518,-0.552616 0.80547,-0.726249 0.35028,-0.172014 0.70223,-0.242076 1.12189,-0.242076 0.5618,0 1.01699,0.138473 1.40279,0.449088 0.38583,0.347277 0.56012,0.761334 0.56012,1.28057 v 0.414039 c -0.20984,-0.103494 -0.49074,-0.207029 -0.84101,-0.310541 -0.38581,-0.103498 -0.77161,-0.138473 -1.19126,-0.138473 -0.87655,0 -1.61262,0.207026 -2.17443,0.622753 -0.5601,0.415705 -0.841,1.003392 -0.841,1.76304 0,0.450789 0.10492,0.864846 0.31643,1.210419 0.24537,0.347294 0.5601,0.622771 0.94593,0.831469 0.42134,0.20701 0.87652,0.310541 1.40277,0.310541 0.52456,0 0.98146,-0.138655 1.40111,-0.345609 0.42134,-0.242094 0.73608,-0.554305 0.91206,-0.899896 h 0.0694 v 1.038461 h 1.12188 v -4.496113 c 0,-0.864846 -0.28089,-1.556027 -0.80548,-2.040202 -0.56179,-0.519237 -1.3334,-0.761314 -2.31485,-0.761314 z m 9.9194,-2.627868 v 2.938412 l 0.0355,0.968343 h -0.0355 c -0.24537,-0.378989 -0.56011,-0.656116 -0.98147,-0.89821 -0.41965,-0.242078 -0.91036,-0.380677 -1.47216,-0.380677 -0.62948,0 -1.22682,0.17363 -1.75138,0.484174 -0.49072,0.310542 -0.91207,0.761334 -1.2268,1.349018 -0.28091,0.55262 -0.42137,1.210421 -0.42137,1.936687 0,0.691181 0.14046,1.349004 0.42137,1.901621 0.31473,0.587687 0.73608,1.038476 1.2268,1.348983 0.52456,0.310544 1.1219,0.484191 1.75138,0.484191 0.5618,0 1.05251,-0.138653 1.47216,-0.380657 0.42136,-0.242096 0.7361,-0.519239 0.98147,-0.86483 h 0.0355 v 1.038461 h 1.15743 v -9.925516 z m 52.47188,0.242078 c -0.76991,0 -1.43666,0.207028 -1.99676,0.656132 -0.59562,0.415743 -1.0525,1.003411 -1.36723,1.764726 -0.31645,0.759648 -0.45518,1.591096 -0.45518,2.524392 0,0.89821 0.13866,1.763041 0.45518,2.489306 0.31473,0.761299 0.77161,1.348983 1.36723,1.798087 0.5601,0.450795 1.26066,0.657821 1.99676,0.657821 0.77162,0 1.43831,-0.207026 2.03396,-0.657821 0.5601,-0.449104 1.01528,-1.036788 1.33171,-1.798087 0.31476,-0.726265 0.4552,-1.591096 0.4552,-2.489306 0,-0.933296 -0.14044,-1.764744 -0.4552,-2.524392 -0.31643,-0.761315 -0.77161,-1.348983 -1.33171,-1.764726 -0.59565,-0.449104 -1.26234,-0.656132 -2.03396,-0.656132 z m 13.03971,0 c -0.59566,0 -1.12188,0.138652 -1.6126,0.414054 -0.52628,0.312211 -0.91039,0.692867 -1.19128,1.177023 -0.31645,0.48419 -0.45519,1.001742 -0.45519,1.556049 0,0.587685 0.13865,1.106906 0.41964,1.556028 0.31644,0.484171 0.66669,0.829762 1.15745,1.106908 0.45518,0.275474 0.94588,0.414054 1.4366,0.414054 0.49076,0 0.91207,-0.138652 1.22683,-0.345609 l 0.0355,0.03497 -2.41977,3.319071 0.9476,0.65782 2.66346,-3.908443 c 0.31471,-0.51757 0.5601,-0.968325 0.77161,-1.382401 C 209.89506,65.97003 210,65.485859 210,64.968307 c 0,-0.519239 -0.14044,-1.038476 -0.41967,-1.52265 -0.28089,-0.484169 -0.66669,-0.864828 -1.15741,-1.17537 -0.49075,-0.310525 -1.08638,-0.449106 -1.71756,-0.449106 z m -56.85288,2.627887 2.94435,6.604756 -1.61264,3.424272 h 1.26237 l 4.41652,-10.029028 h -1.29789 l -2.17273,5.222377 h -0.0355 l -2.24212,-5.222377 z"
         inkscape:connector-curvature="0"
         style="display:inline;opacity:0.75;fill:#3c4043;fill-opacity:1;fill-rule:evenodd;stroke:none;stroke-width:0.55535299;stroke-linecap:square;stroke-miterlimit:10" />
    </g>
  </g>
</svg>
